<svg width="64" height="64" viewBox="0 0 74 74" fill="none" xmlns="http://www.w3.org/2000/svg">
  <path d="M48.8211 71.5956C46.6257 72.0391 44.7301 72.4195 42.4812 72.6289C33.5437 73.46 25.0314 71.5564 17.5182 66.5767C9.27004 61.0792 3.54186 52.5328 1.59258 42.814C-0.343902 33.4171 1.55982 23.6361 6.8793 15.6514C12.2069 7.67786 20.3179 2.50478 29.6979 0.667551C39.0671 -1.16241 48.7795 0.80517 56.6978 6.1372C65.6749 12.1838 70.6274 21.4304 71.9621 32.0154C71.5777 31.2262 71.5129 29.6059 71.2764 28.6694C66.1544 8.36195 44.9619 -1.69594 25.9092 6.60592C17.0181 10.5413 10.0636 17.8602 6.5872 26.9407C5.76005 29.0519 5.28638 30.8827 4.74502 33.089C6.20815 31.1086 8.05769 29.3695 9.67219 27.522C11.0056 25.996 11.1423 26.2539 12.9407 25.8311C13.6276 25.0712 21.0432 19.2455 21.5099 19.1988C22.0853 19.543 24.5279 21.8724 25.1507 22.4967C26.4655 23.8146 28.434 25.4859 29.6318 26.8037C30.7542 26.0242 32.0323 25.3063 33.2407 24.6664C33.99 25.1332 36.2412 27.1752 37.0332 27.8491C38.4637 29.0565 39.8831 30.2759 41.292 31.5076C41.5909 31.7677 42.7226 32.7174 42.9 32.9426C40.6207 31.5366 38.1952 30.2703 35.9184 28.8369C35.1538 28.3557 34.2745 27.8854 33.5435 27.3771C34.1217 28.9567 34.8841 30.5813 35.6442 32.083C33.769 31.2543 31.5261 30.3333 29.7516 29.3614C29.355 29.1441 27.5013 27.3742 27.0133 26.923C25.206 25.2658 23.4104 23.5959 21.6268 21.9132C21.6473 22.857 21.7605 24.371 21.7285 25.231C21.3229 25.6267 20.9845 25.8562 20.525 26.186L25.572 31.2512C26.2765 31.9553 27.2643 33.0189 27.9871 33.6153C25.8499 32.5341 23.7535 31.3488 21.6356 30.2896C21.7165 31.1626 21.8978 32.6843 21.8893 33.5099C20.0256 32.4177 18.0043 31.2987 16.1144 30.2316C14.2934 32.2144 12.4831 34.2071 10.6837 36.2097C11.176 34.1154 11.6886 32.0261 12.2216 29.9418C9.6578 32.2108 6.88034 34.6793 4.26879 36.8864C3.72767 41.0558 4.57264 45.8301 5.70819 49.8323C9.55391 44.369 27.893 44.2164 34.1352 44.2045L34.0548 44.226C33.421 44.3902 32.0782 44.6251 31.4819 44.7376C23.6188 46.2218 15.3197 50.6614 26.304 56.9938C26.8925 57.3334 27.9934 57.8849 28.579 58.2637C27.9728 60.4007 27.7543 62.0925 28.1536 64.3031C23.9163 62.2228 18.8662 59.0301 16.1418 55.1341C11.9309 49.1118 20.3796 46.5848 24.6131 45.5467C24.9912 45.5172 26.6066 45.1317 27.0651 45.0273L27.101 44.9454L27.1519 45.001L27.0745 45.0224L27.0872 44.944C26.2882 44.9874 25.0457 45.205 24.2473 45.3388C20.2779 46.1929 11.7727 48.0127 13.2764 53.7491C14.432 58.1574 19.9837 61.8928 23.7134 64.1816C26.2835 65.7584 28.8094 66.6071 31.4682 67.845C29.8489 66.464 28.9515 64.8833 28.8765 62.7311C28.7314 58.5698 30.7225 53.3911 35.5563 53.5477C35.7633 52.9947 35.8776 52.7086 36.1533 52.1899C35.6387 51.7329 34.996 51.1922 34.5126 50.7181C33.9926 50.9307 33.7247 51.0556 33.2353 51.3293C32.7279 51.2582 31.9011 51.23 31.6043 50.8758C31.5728 50.5415 31.6422 50.6696 31.4335 50.4571C31.1526 50.4071 30.5366 50.3437 30.3592 50.1492C30.4011 49.8737 30.3571 50.007 30.5506 49.7541C30.9595 49.5592 31.4634 49.7205 31.9214 49.8062C32.2908 49.5563 32.6521 49.309 33.0327 49.0754C32.4618 48.1201 31.9851 47.3916 31.7645 46.2782C32.5004 46.2764 35.0288 46.1506 35.6498 46.6636C35.7042 46.7086 35.7521 46.9169 35.7713 46.9968C36.0071 47.5877 36.3204 47.8217 36.7799 48.2577C36.4626 47.7676 36.262 47.4365 35.9951 46.9198C35.8281 45.9198 35.924 44.7132 36.8063 44.0347C37.4888 43.5102 38.1145 43.6336 38.9049 43.7314L37.6086 43.2043C38.0945 41.16 40.2739 37.9185 41.9841 36.6425C42.6283 36.1623 43.5473 36.0326 44.3265 36.0392C44.822 36.0434 45.9712 36.4196 46.1438 35.9006C45.9401 35.5755 45.7882 35.3113 45.6084 34.9725C45.6523 33.7232 45.817 32.4441 46.7568 31.5074C48.5853 29.6854 51.8596 30.6192 52.9121 32.8425C53.3149 33.6939 53.378 34.1951 53.3756 35.0997C51.3681 34.9642 50.2916 34.289 48.6397 33.2779C48.8586 35.4022 49.5196 36.443 51.4256 37.4859C51.9267 37.3352 52.2903 37.1258 52.6108 37.6313C52.6659 38.3162 52.0402 39.0061 51.6246 39.5291C52.4509 40.8293 53.8943 42.0359 55.2177 42.8114C55.515 43.1068 56.8704 43.9136 57.2932 44.2409C57.8542 44.6758 58.4296 45.1344 59.0434 45.4847L59.045 45.4276C57.8734 44.3299 56.5475 43.3243 55.3344 42.2485C54.8725 41.8552 54.369 41.4428 53.927 41.0329C58.9251 38.9322 59.1433 40.7735 61.9268 44.5349C62.2249 44.9376 62.5126 45.3771 62.7907 45.7914C63.2342 45.5687 63.6946 45.3464 64.1253 45.1037C64.3227 43.7473 64.9277 43.353 66.4198 43.4703C67.1286 43.5261 67.6705 44.0476 67.3356 44.7591C66.8665 46.0118 65.655 45.8137 64.6088 45.5898C64.0654 45.9027 63.7865 46.0859 63.3573 46.5783C64.1485 47.8708 65.1842 49.3096 64.8262 50.8909C64.5009 52.328 63.4205 52.8229 62.4135 53.7316C59.5309 52.9388 57.8726 53.3224 55.2369 54.8208C55.0355 54.9335 54.8365 55.051 54.6399 55.1733C54.8013 56.4008 55.2073 58.9797 55.2273 60.0978C55.4678 60.2265 55.6253 60.2265 55.8842 60.1146C55.905 58.6529 55.4582 56.6877 55.4862 54.9847C58.1443 53.7683 60.9981 54.2366 63.7921 55.0158C64.0934 55.0997 64.5081 55.3962 64.7295 55.6312L64.7247 55.7495L64.7663 55.672L64.7839 55.6943C64.5201 55.8366 64.5753 55.5833 64.2308 55.7503C64.226 56.1347 64.7775 56.6989 64.9749 57.0601C67.3093 61.3054 65.8124 67.117 62.5493 70.4423C60.0551 72.9853 55.666 73.8333 53.0735 71.0042C49.9184 67.5613 50.7143 63.0803 52.2807 59.1819L51.6845 58.736C50.4059 61.6242 49.7657 64.1312 50.2532 67.3008C47.5136 67.1122 41.909 65.899 39.2581 65.0727C38.0897 67.0986 36.8055 68.255 34.4257 68.5499C38.6883 69.7295 44.4168 71.1153 48.8211 71.5956ZM55.4686 67.6604C56.2023 67.6412 56.5899 67.6236 57.2516 67.2209C59.8745 65.6241 61.1132 60.4462 58.2482 58.5458L58.0396 59.9196C60.1382 62.4002 57.5033 67.6077 54.89 65.7696C54.5959 65.4235 54.5336 65.3132 54.3682 64.9248C54.2307 64.6004 54.2635 63.4839 53.9454 63.4392C51.7756 63.1339 53.8535 60.7843 53.7065 60.0419L53.565 59.9148C53.3516 59.9571 53.2054 60.0267 53.1023 60.2449C51.8779 62.8174 51.4712 68.0784 54.4305 69.7543C55.2425 70.2202 56.2111 70.3321 57.1078 70.0611C61.3458 68.8208 63.8528 61.4332 61.361 57.7019C60.6961 56.7053 59.8673 56.3457 58.7405 56.0955C58.7373 56.1778 58.6957 56.4975 58.7676 56.5343C60.8279 57.5988 61.4769 59.4928 61.4569 61.7313C61.4345 64.1632 59.9952 68.1887 56.9991 68.1463C56.4221 68.1375 55.9753 67.9066 55.4686 67.6604ZM51.018 40.5516C50.1901 40.6017 49.9319 40.6191 49.1136 40.3524C48.3528 41.2056 47.6719 41.6639 46.6793 42.2394C46.8791 42.353 47.4009 42.6566 47.5504 42.692C48.5989 42.9404 49.4444 42.5979 50.0127 43.7313C50.0374 43.7808 50.7271 43.6606 50.8654 43.6591C51.1571 42.8901 51.9842 43.0766 52.7003 43.0829C52.4286 42.8109 51.9882 42.4376 51.8691 42.1014C51.9131 41.7313 52.0298 41.7434 52.3542 41.5634C51.8699 41.156 51.5551 40.8793 51.018 40.5516ZM53.5946 51.0981C51.1467 51.6221 49.4301 52.544 47.9796 54.6874C46.5626 56.7804 45.98 59.9923 46.5402 62.4586C46.5642 62.5609 46.5906 62.6624 46.6194 62.7639C46.6273 62.7159 46.6345 62.668 46.6417 62.6208C46.724 61.9127 46.5698 60.9417 46.6617 60.248C47.0565 57.2791 48.5789 54.5315 50.9413 52.6806C51.7437 52.0525 52.6092 51.6153 53.5354 51.2123C53.6297 51.1712 53.6034 51.2053 53.6185 51.1067L53.5946 51.0981ZM41.5022 46.6823C41.7052 46.5199 42.0113 46.2067 42.1855 46.0836C43.1493 45.4031 44.9043 45.5839 46 45.8466C46.6833 46.002 47.3914 46.1741 48.0755 46.3127C47.2923 45.9156 46.5067 45.7246 46 45.1191C45.3079 44.9342 44.0244 44.675 43.2732 44.5339C42.327 45.2903 42.0377 45.5772 41.5022 46.6823ZM53.9894 50.3451C52.8577 49.3857 50.421 48.0115 49.0888 47.3259C49.6187 47.1353 50.0478 46.9468 50.5625 46.7166C44.9203 47.4181 42.0497 48.6449 39.5746 54.0225C39.2246 54.5635 38.8282 55.3819 38.6212 55.9932C39.0511 55.3443 39.4068 54.7521 39.7992 54.084C41.2177 51.778 43.4634 49.5174 46.0391 48.6238C46.5027 48.4631 47.2051 48.209 47.6838 48.2495C49.7449 48.4241 52.1544 49.5278 53.9894 50.3451ZM41.3464 41.059C41.0978 42.5592 40.6982 43.6866 42.458 44.2608C42.3629 43.9082 41.7588 43.8138 41.5246 43.2213C41.2537 42.5348 41.4767 41.6287 41.3464 41.059ZM33.6004 57.5772C33.721 57.3318 34.3861 56.1459 34.3557 56.0476L34.2859 56.042C33.8206 56.1523 33.2896 56.2681 32.8658 56.5047C30.769 57.6763 29.9806 61.1847 30.4761 63.3768C30.8931 65.2221 32.2524 66.4712 34.069 65.1902C34.4936 64.9696 34.9036 64.4102 35.2225 64.0242C34.2714 64.1312 34.0718 63.9235 33.1817 63.6198C32.8622 63.5111 32.4011 63.6182 32.1218 63.3736C30.7541 62.2907 31.1879 59.6231 32.1821 58.4347C32.626 57.9041 32.9694 57.7546 33.6004 57.5772ZM55.3823 46.1506C56.2478 50.4843 58.5303 50.2105 62.1042 51.524C61.3682 49.264 60.5234 48.4381 58.3665 47.3032C57.6368 46.9191 56.1847 46.3264 55.3823 46.1506Z" fill="#FE6B01"/>
</svg>
